<svg xmlns="http://www.w3.org/2000/svg" viewBox="0 0 1000 320" width="1000" height="320">
  <defs>
    <linearGradient id="bg" x1="0" y1="0" x2="1" y2="1">
      <stop offset="0%" stop-color="#090b12" />
      <stop offset="100%" stop-color="#111827" />
    </linearGradient>
    <linearGradient id="accents" x1="0" y1="0" x2="1" y2="1">
      <stop offset="0%" stop-color="#7c3aed" />
      <stop offset="100%" stop-color="#38bdf8" />
    </linearGradient>
  </defs>
  <rect width="1000" height="320" rx="28" fill="url(#bg)" />
  <g font-family="Inter, Arial, sans-serif" font-size="16" fill="#e2e8f0">
    <rect x="56" y="54" width="170" height="78" rx="20" fill="#111827" stroke="#334155" stroke-width="1.2" />
    <text x="142" y="90" text-anchor="middle" font-size="18" font-weight="700">Telegram</text>
    <text x="142" y="114" text-anchor="middle" fill="#94a3b8">chat input</text>
  </g>
  <g font-family="Inter, Arial, sans-serif" font-size="16" fill="#e2e8f0">
    <rect x="300" y="56" width="170" height="78" rx="20" fill="#111827" stroke="#334155" stroke-width="1.2" />
    <text x="385" y="90" text-anchor="middle" font-size="18" font-weight="700">Bot</text>
    <text x="385" y="114" text-anchor="middle" fill="#94a3b8">message parsing</text>
  </g>
  <g font-family="Inter, Arial, sans-serif" font-size="16" fill="#e2e8f0">
    <rect x="544" y="56" width="170" height="78" rx="20" fill="#111827" stroke="#334155" stroke-width="1.2" />
    <text x="629" y="90" text-anchor="middle" font-size="18" font-weight="700">Webhook</text>
    <text x="629" y="114" text-anchor="middle" fill="#94a3b8">event pipeline</text>
  </g>
  <g font-family="Inter, Arial, sans-serif" font-size="16" fill="#e2e8f0">
    <rect x="788" y="56" width="170" height="78" rx="20" fill="#111827" stroke="#334155" stroke-width="1.2" />
    <text x="873" y="90" text-anchor="middle" font-size="18" font-weight="700">GitHub</text>
    <text x="873" y="114" text-anchor="middle" fill="#94a3b8">audit commit</text>
  </g>
  <path d="M226 95 L298 95" stroke="#38bdf8" stroke-width="4" marker-end="url(#arrow)" />
  <path d="M470 95 L542 95" stroke="#38bdf8" stroke-width="4" marker-end="url(#arrow)" />
  <path d="M714 95 L786 95" stroke="#38bdf8" stroke-width="4" marker-end="url(#arrow)" />
  <defs>
    <marker id="arrow" viewBox="0 0 10 10" refX="10" refY="5" markerWidth="6" markerHeight="6" orient="auto-start-reverse">
      <path d="M 0 0 L 10 5 L 0 10 z" fill="#38bdf8" />
    </marker>
  </defs>
  <text x="500" y="220" font-family="Inter, Arial, sans-serif" fill="#94a3b8" font-size="16" text-anchor="middle">Automation flow: message → validation → commit → visibility</text>
</svg>