<svg xmlns="http://www.w3.org/2000/svg" viewBox="0 0 1200 360" width="1200" height="360">
  <defs>
    <linearGradient id="bg" x1="0" y1="0" x2="1" y2="1">
      <stop offset="0%" stop-color="#080a12" />
      <stop offset="100%" stop-color="#121827" />
    </linearGradient>
    <linearGradient id="textGrad" x1="0" y1="0" x2="1" y2="0">
      <stop offset="0%" stop-color="#7c3aed" />
      <stop offset="100%" stop-color="#38bdf8" />
    </linearGradient>
    <filter id="softGlow" x="-20%" y="-20%" width="140%" height="140%">
      <feGaussianBlur stdDeviation="18" result="glow" />
      <feMerge><feMergeNode in="glow" /><feMergeNode in="SourceGraphic"/></feMerge>
    </filter>
  </defs>
  <rect width="1200" height="360" fill="url(#bg)" />
  <circle cx="980" cy="80" r="110" fill="#2c3e50" opacity="0.22" />
  <circle cx="110" cy="260" r="90" fill="#7c3aed" opacity="0.18" />
  <circle cx="320" cy="120" r="56" fill="#38bdf8" opacity="0.28" />
  <rect x="60" y="60" width="440" height="220" rx="28" fill="#111827" opacity="0.88" filter="url(#softGlow)" />
  <text x="90" y="120" font-family="Inter, Arial, sans-serif" font-size="42" fill="url(#textGrad)" font-weight="700">Naboraj Sarkar</text>
  <text x="90" y="170" font-family="Inter, Arial, sans-serif" font-size="24" fill="#e2e8f0" letter-spacing="0.02em">Student Developer • Automation Explorer</text>
  <text x="90" y="210" font-family="Inter, Arial, sans-serif" font-size="18" fill="#94a3b8">Learning by building. Testing ideas. Understanding systems.</text>
  <g transform="translate(90,250)">
    <rect x="0" y="0" width="238" height="44" rx="12" fill="#1f2937" />
    <text x="20" y="28" font-family="Inter, Arial, sans-serif" font-size="16" fill="#38bdf8">AI agents</text>
    <rect x="258" y="0" width="238" height="44" rx="12" fill="#1f2937" />
    <text x="278" y="28" font-family="Inter, Arial, sans-serif" font-size="16" fill="#a78bfa">Automation</text>
    <rect x="516" y="0" width="238" height="44" rx="12" fill="#1f2937" />
    <text x="536" y="28" font-family="Inter, Arial, sans-serif" font-size="16" fill="#38bdf8">Telegram workflows</text>
  </g>
  <path d="M780 140 C860 120 920 160 980 140" fill="none" stroke="#38bdf8" stroke-width="3" opacity="0.72" />
  <path d="M780 185 C860 165 920 205 980 185" fill="none" stroke="#8b5cf6" stroke-width="3" opacity="0.72" />
</svg>