<svg xmlns="http://www.w3.org/2000/svg" viewBox="0 0 1800 700" width="100%" height="100%">
  <title>Naboraj Sarkar - Engineering Identity</title>
  <desc>Cinematic engineering hero representing intelligent software, AI agents, developer tools, and automation systems.</desc>

  <defs>
    <!-- Background Blur & Filters -->
    <filter id="ai-aurora-blur" x="-50%" y="-50%" width="200%" height="200%">
      <feGaussianBlur stdDeviation="100" />
    </filter>
    <filter id="ai-shadow" x="-20%" y="-20%" width="140%" height="140%">
      <feGaussianBlur stdDeviation="15" result="blur" />
      <feColorMatrix type="matrix" values="0 0 0 0 0   0 0 0 0 0   0 0 0 0 0  0 0 0 0.5 0" />
    </filter>
    <filter id="ai-glow" x="-50%" y="-50%" width="200%" height="200%">
      <feGaussianBlur stdDeviation="4" result="blur" />
      <feMerge>
        <feMergeNode in="blur"/>
        <feMergeNode in="SourceGraphic"/>
      </feMerge>
    </filter>
    <filter id="ai-glow-lg" x="-50%" y="-50%" width="200%" height="200%">
      <feGaussianBlur stdDeviation="12" result="blur" />
      <feMerge>
        <feMergeNode in="blur"/>
        <feMergeNode in="SourceGraphic"/>
      </feMerge>
    </filter>

    <!-- UI & Card Gradients -->
    <radialGradient id="bg-glow" cx="50%" cy="50%" r="60%">
      <stop offset="0%" stop-color="#102A43" stop-opacity="0.9" />
      <stop offset="100%" stop-color="#07111F" stop-opacity="1" />
    </radialGradient>
    <linearGradient id="card-border" x1="0" y1="0" x2="1" y2="1">
      <stop offset="0%" stop-color="#38BDF8" stop-opacity="0.4" />
      <stop offset="100%" stop-color="#102A43" stop-opacity="0.1" />
    </linearGradient>
    <linearGradient id="scan-grad" x1="0" y1="0" x2="1" y2="0">
      <stop offset="0%" stop-color="#38BDF8" stop-opacity="0" />
      <stop offset="50%" stop-color="#38BDF8" stop-opacity="1" />
      <stop offset="100%" stop-color="#38BDF8" stop-opacity="0" />
    </linearGradient>
    <clipPath id="card-clip">
      <rect x="1" y="1" width="268" height="168" rx="11" />
    </clipPath>

    <!-- Brain Core Gradients -->
    <radialGradient id="core-aura" cx="50%" cy="50%" r="50%">
      <stop offset="0%" stop-color="#38BDF8" stop-opacity="0.25" />
      <stop offset="60%" stop-color="#06B6D4" stop-opacity="0.05" />
      <stop offset="100%" stop-color="#07111F" stop-opacity="0" />
    </radialGradient>
    <radialGradient id="core-glow" cx="50%" cy="50%" r="50%">
      <stop offset="0%" stop-color="#06B6D4" stop-opacity="0.4" />
      <stop offset="100%" stop-color="#07111F" stop-opacity="0" />
    </radialGradient>
    <radialGradient id="brain-grad" cx="50%" cy="50%" r="50%">
      <stop offset="0%" stop-color="#F8FAFC" stop-opacity="1" />
      <stop offset="40%" stop-color="#38BDF8" stop-opacity="0.9" />
      <stop offset="100%" stop-color="#102A43" stop-opacity="0.5" />
    </radialGradient>

    <!-- Textures -->
    <pattern id="grid" width="60" height="60" patternUnits="userSpaceOnUse">
      <path d="M 60 0 L 0 0 0 60" fill="none" stroke="#102A43" stroke-width="1" stroke-opacity="0.5" />
      <circle cx="60" cy="60" r="1.5" fill="#102A43" opacity="0.8" />
    </pattern>

    <!-- Organic Neural Pathways -->
    <path id="c-reason" d="M 1500 350 Q 1400 280 1320 220" />
    <path id="c-mem" d="M 1500 350 Q 1580 280 1650 200" />
    <path id="c-tool" d="M 1500 350 Q 1580 420 1680 480" />
    <path id="c-learn" d="M 1500 350 Q 1400 420 1350 500" />
    
    <path id="c-plan" d="M 1320 220 Q 1360 180 1410 160" />
    <path id="c-decide" d="M 1320 220 Q 1280 250 1260 300" />
    
    <path id="c-ctx" d="M 1650 200 Q 1600 230 1580 280" />
    <path id="c-ctx-core" d="M 1580 280 Q 1550 320 1500 350" />
    
    <path id="c-resp" d="M 1680 480 Q 1620 500 1570 520" />
    <path id="c-resp-core" d="M 1570 520 Q 1530 440 1500 350" />

    <path id="c-opt" d="M 1350 500 Q 1300 480 1250 440" />
    <path id="c-inf" d="M 1350 500 Q 1380 540 1420 560" />
    <path id="c-inf-core" d="M 1420 560 Q 1450 450 1500 350" />

    <!-- Storytelling Traces -->
    <path id="bg-story-1" d="M -50 150 Q 300 150 500 250 T 1100 250 T 1500 350" fill="none"/>
    <path id="bg-story-2" d="M -50 550 Q 200 550 400 450 T 900 450 T 1300 350" fill="none"/>
    <path id="bg-story-3" d="M 200 750 Q 400 650 600 550 T 1100 550 T 1400 500" fill="none"/>
  </defs>

  <style>
    @keyframes spin-1 { from { transform: rotate(0deg); } to { transform: rotate(360deg); } }
    @keyframes spin-rev-1 { from { transform: rotate(0deg); } to { transform: rotate(-360deg); } }
    @keyframes pulse { 0%, 100% { opacity: 0.3; filter: brightness(1); } 50% { opacity: 1; filter: brightness(1.5); } }
    @keyframes particleDrift { 0% { transform: translate(0,0); opacity: 0; } 20% { opacity: 0.6; } 80% { opacity: 0.6; } 100% { transform: translate(25px, -50px); opacity: 0; } }
    @keyframes flow-1 { from { stroke-dashoffset: 100; } to { stroke-dashoffset: 0; } }
    @keyframes flow-2 { from { stroke-dashoffset: 0; } to { stroke-dashoffset: 100; } }

    .spin-1 { animation: spin-1 30s linear infinite; }
    .spin-rev-1 { animation: spin-rev-1 40s linear infinite; }
    .pulse { animation: pulse 3s ease-in-out infinite; }
    .particle { animation: particleDrift linear infinite; }
    .flow-1 { animation: flow-1 4s linear infinite; }
    .flow-2 { animation: flow-2 5s linear infinite; }
  </style>

  <!-- ======================== -->
  <!-- DEEP CINEMATIC BACKDROP  -->
  <!-- ======================== -->
  <rect width="1800" height="700" fill="url(#bg-glow)" />
  <rect width="1800" height="700" fill="url(#grid)" />

  <!-- Aurora Lighting Layers -->
  <ellipse cx="15%" cy="25%" rx="35%" ry="35%" fill="#06B6D4" filter="url(#ai-aurora-blur)" opacity="0.12" />
  <ellipse cx="85%" cy="50%" rx="45%" ry="45%" fill="#38BDF8" filter="url(#ai-aurora-blur)" opacity="0.08" />
  <ellipse cx="50%" cy="80%" rx="35%" ry="25%" fill="#22C55E" filter="url(#ai-aurora-blur)" opacity="0.08" />

  <!-- Storytelling Traces -->
  <g stroke="#38BDF8" stroke-width="1.5" fill="none" opacity="0.15" stroke-dasharray="4 8">
    <use href="#bg-story-1" />
    <use href="#bg-story-2" />
    <use href="#bg-story-3" />
  </g>
  <!-- Moving story packets -->
  <g filter="url(#ai-glow)">
    <circle r="2.5" fill="#06B6D4" opacity="0.6"><animateMotion dur="10s" repeatCount="indefinite"><mpath href="#bg-story-1"/></animateMotion></circle>
    <circle r="3" fill="#38BDF8" opacity="0.6"><animateMotion dur="14s" repeatCount="indefinite"><mpath href="#bg-story-1"/></animateMotion></circle>
    <circle r="2" fill="#22C55E" opacity="0.6"><animateMotion dur="12s" repeatCount="indefinite"><mpath href="#bg-story-2"/></animateMotion></circle>
    <circle r="2.5" fill="#F59E0B" opacity="0.6"><animateMotion dur="15s" repeatCount="indefinite"><mpath href="#bg-story-3"/></animateMotion></circle>
  </g>

  <!-- Atmospheric Particles -->
  <g fill="#38BDF8" filter="url(#ai-glow)">
    <circle cx="150" cy="550" r="1.5" class="particle" style="animation-duration: 10s;" />
    <circle cx="350" cy="120" r="2" class="particle" style="animation-duration: 15s;" />
    <circle cx="650" cy="480" r="1" class="particle" style="animation-duration: 12s;" />
    <circle cx="950" cy="220" r="2.5" class="particle" style="animation-duration: 18s;" />
    <circle cx="1300" cy="620" r="1.5" class="particle" style="animation-duration: 14s;" />
    <circle cx="1650" cy="150" r="2" class="particle" style="animation-duration: 16s;" />
    <circle cx="1750" cy="450" r="1.5" class="particle" style="animation-duration: 11s;" />
  </g>

  <!-- ======================== -->
  <!-- LEFT SECTION (IDENTITY)  -->
  <!-- ======================== -->
  <g transform="translate(100, 160)">
    <!-- Primary Identity Block -->
    <text x="0" y="0" font-family="Inter, system-ui, sans-serif" font-size="58" font-weight="800" fill="#F8FAFC" letter-spacing="1">Naboraj Sarkar</text>
    <text x="0" y="45" font-family="Inter, system-ui, sans-serif" font-size="18" font-weight="600" fill="#38BDF8" letter-spacing="1">Software Engineer <tspan fill="#475569">|</tspan> AI Systems Builder <tspan fill="#475569">|</tspan> Open Source</text>

    <!-- Engineering Mission Statement -->
    <text x="0" y="100" font-family="Inter, system-ui, sans-serif" font-size="16" fill="#CBD5E1" line-height="1.6">
      <tspan x="0" dy="0">Building intelligent software, AI agents,</tspan>
      <tspan x="0" dy="28">developer tools, and automation systems</tspan>
      <tspan x="0" dy="28">through curiosity, engineering, and</tspan>
      <tspan x="0" dy="28">continuous experimentation.</tspan>
    </text>

    <!-- Currently Exploring Header -->
    <text x="0" y="270" font-family="Inter, system-ui, sans-serif" font-size="12" font-weight="700" fill="#94A3B8" letter-spacing="2" text-transform="uppercase">Currently Exploring</text>

    <!-- Glassy Tech Chips -->
    <g transform="translate(0, 295)">
      <!-- Row 1 -->
      <g transform="translate(0, 0)">
        <rect x="0" y="0" width="105" height="32" rx="16" fill="#102A43" fill-opacity="0.6" stroke="#06B6D4" stroke-opacity="0.4" />
        <circle cx="15" cy="16" r="4" fill="#06B6D4" class="pulse" />
        <text x="28" y="20" font-family="Inter, system-ui, sans-serif" font-size="12" fill="#E2E8F0" font-weight="500">AI Agents</text>
      </g>
      <g transform="translate(115, 0)">
        <rect x="0" y="0" width="165" height="32" rx="16" fill="#102A43" fill-opacity="0.6" stroke="#38BDF8" stroke-opacity="0.4" />
        <circle cx="15" cy="16" r="4" fill="#38BDF8" class="pulse" />
        <text x="28" y="20" font-family="Inter, system-ui, sans-serif" font-size="12" fill="#E2E8F0" font-weight="500">Multi-Agent Systems</text>
      </g>
      <g transform="translate(290, 0)">
        <rect x="0" y="0" width="115" height="32" rx="16" fill="#102A43" fill-opacity="0.6" stroke="#22C55E" stroke-opacity="0.4" />
        <circle cx="15" cy="16" r="4" fill="#22C55E" class="pulse" />
        <text x="28" y="20" font-family="Inter, system-ui, sans-serif" font-size="12" fill="#E2E8F0" font-weight="500">Automation</text>
      </g>

      <!-- Row 2 -->
      <g transform="translate(0, 42)">
        <rect x="0" y="0" width="130" height="32" rx="16" fill="#102A43" fill-opacity="0.6" stroke="#F59E0B" stroke-opacity="0.4" />
        <circle cx="15" cy="16" r="4" fill="#F59E0B" class="pulse" />
        <text x="28" y="20" font-family="Inter, system-ui, sans-serif" font-size="12" fill="#E2E8F0" font-weight="500">System Design</text>
      </g>
      <g transform="translate(140, 42)">
        <rect x="0" y="0" width="155" height="32" rx="16" fill="#102A43" fill-opacity="0.6" stroke="#38BDF8" stroke-opacity="0.4" />
        <circle cx="15" cy="16" r="4" fill="#38BDF8" class="pulse" />
        <text x="28" y="20" font-family="Inter, system-ui, sans-serif" font-size="12" fill="#E2E8F0" font-weight="500">Embedded Systems</text>
      </g>

      <!-- Row 3 -->
      <g transform="translate(0, 84)">
        <rect x="0" y="0" width="135" height="32" rx="16" fill="#102A43" fill-opacity="0.6" stroke="#22C55E" stroke-opacity="0.4" />
        <circle cx="15" cy="16" r="4" fill="#22C55E" class="pulse" />
        <text x="28" y="20" font-family="Inter, system-ui, sans-serif" font-size="12" fill="#E2E8F0" font-weight="500">Developer Tools</text>
      </g>
      <g transform="translate(145, 84)">
        <rect x="0" y="0" width="125" height="32" rx="16" fill="#102A43" fill-opacity="0.6" stroke="#06B6D4" stroke-opacity="0.4" />
        <circle cx="15" cy="16" r="4" fill="#06B6D4" class="pulse" />
        <text x="28" y="20" font-family="Inter, system-ui, sans-serif" font-size="12" fill="#E2E8F0" font-weight="500">Open Source</text>
      </g>
    </g>
  </g>

  <!-- ======================== -->
  <!-- CENTER SECTION (MODULES) -->
  <!-- ======================== -->
  
  <!-- Module 1: Autonomous AI -->
  <g transform="translate(580, 140)">
    <rect x="0" y="0" width="270" height="170" rx="12" fill="#0D1B2A" fill-opacity="0.8" filter="url(#ai-shadow)" />
    <rect x="1" y="1" width="268" height="168" rx="11" fill="none" stroke="url(#card-border)" stroke-width="1.5" />
    <rect x="-100" y="1" width="100" height="2" fill="url(#scan-grad)" clip-path="url(#card-clip)">
      <animate attributeName="x" values="-100; 270; -100" dur="4s" repeatCount="indefinite" />
    </rect>

    <g transform="translate(20, 20)" stroke="#38BDF8" stroke-width="2" stroke-linecap="round" stroke-linejoin="round" fill="none">
      <circle cx="8" cy="8" r="3" /> <circle cx="20" cy="8" r="3" /> <circle cx="14" cy="20" r="3" />
      <path d="M 10 10 L 18 10 M 12 18 L 9 11 M 16 18 L 19 11" />
    </g>

    <text x="55" y="36" font-family="Inter, system-ui, sans-serif" font-size="15" font-weight="700" fill="#F8FAFC">Autonomous AI</text>
    <g transform="translate(210, 26)">
      <rect x="0" y="0" width="45" height="18" rx="9" fill="#22C55E" fill-opacity="0.1" stroke="#22C55E" stroke-opacity="0.3" />
      <circle cx="10" cy="9" r="3" fill="#22C55E" class="pulse" />
      <text x="18" y="13" font-family="Inter, system-ui, sans-serif" font-size="9" font-weight="600" fill="#22C55E">LIVE</text>
    </g>
    <line x1="20" y1="55" x2="250" y2="55" stroke="#102A43" stroke-width="1" />
    <text x="20" y="78" font-family="Inter, system-ui, sans-serif" font-size="13" fill="#94A3B8" line-height="1.5">
      <tspan x="20" dy="0">Multi-agent reasoning loops,</tspan>
      <tspan x="20" dy="20">tool routers, and modern</tspan>
      <tspan x="20" dy="20">LLM orchestration.</tspan>
    </text>
    <g transform="translate(20, 135)">
      <rect x="0" y="0" width="45" height="20" rx="4" fill="#102A43" />
      <text x="22.5" y="14" font-family="Inter, system-ui, sans-serif" font-size="10" fill="#06B6D4" text-anchor="middle">LLMs</text>
      <rect x="52" y="0" width="60" height="20" rx="4" fill="#102A43" />
      <text x="82" y="14" font-family="Inter, system-ui, sans-serif" font-size="10" fill="#06B6D4" text-anchor="middle">Python</text>
      <rect x="119" y="0" width="50" height="20" rx="4" fill="#102A43" />
      <text x="144" y="14" font-family="Inter, system-ui, sans-serif" font-size="10" fill="#06B6D4" text-anchor="middle">Vector</text>
    </g>
  </g>

  <!-- Module 2: Developer Tools -->
  <g transform="translate(870, 140)">
    <rect x="0" y="0" width="270" height="170" rx="12" fill="#0D1B2A" fill-opacity="0.8" filter="url(#ai-shadow)" />
    <rect x="1" y="1" width="268" height="168" rx="11" fill="none" stroke="url(#card-border)" stroke-width="1.5" />
    <rect x="-100" y="1" width="100" height="2" fill="url(#scan-grad)" clip-path="url(#card-clip)">
      <animate attributeName="x" values="-100; 270; -100" dur="4.5s" repeatCount="indefinite" />
    </rect>

    <g transform="translate(20, 20)" stroke="#22C55E" stroke-width="2" stroke-linecap="round" stroke-linejoin="round" fill="none">
      <rect x="4" y="6" width="24" height="18" rx="2" />
      <polyline points="8 12 12 15 8 18" />
      <line x1="14" y1="18" x2="20" y2="18" />
    </g>

    <text x="55" y="36" font-family="Inter, system-ui, sans-serif" font-size="15" font-weight="700" fill="#F8FAFC">Developer Tools</text>
    <g transform="translate(200, 26)">
      <rect x="0" y="0" width="55" height="18" rx="9" fill="#38BDF8" fill-opacity="0.1" stroke="#38BDF8" stroke-opacity="0.3" />
      <circle cx="10" cy="9" r="3" fill="#38BDF8" class="pulse" />
      <text x="18" y="13" font-family="Inter, system-ui, sans-serif" font-size="9" font-weight="600" fill="#38BDF8">ACTIVE</text>
    </g>
    <line x1="20" y1="55" x2="250" y2="55" stroke="#102A43" stroke-width="1" />
    <text x="20" y="78" font-family="Inter, system-ui, sans-serif" font-size="13" fill="#94A3B8" line-height="1.5">
      <tspan x="20" dy="0">CLI utilities, build</tspan>
      <tspan x="20" dy="20">automation, and open-source</tspan>
      <tspan x="20" dy="20">infrastructure.</tspan>
    </text>
    <g transform="translate(20, 135)">
      <rect x="0" y="0" width="45" height="20" rx="4" fill="#102A43" />
      <text x="22.5" y="14" font-family="Inter, system-ui, sans-serif" font-size="10" fill="#22C55E" text-anchor="middle">Rust</text>
      <rect x="52" y="0" width="60" height="20" rx="4" fill="#102A43" />
      <text x="82" y="14" font-family="Inter, system-ui, sans-serif" font-size="10" fill="#22C55E" text-anchor="middle">Node.js</text>
      <rect x="119" y="0" width="40" height="20" rx="4" fill="#102A43" />
      <text x="139" y="14" font-family="Inter, system-ui, sans-serif" font-size="10" fill="#22C55E" text-anchor="middle">CLI</text>
    </g>
  </g>

  <!-- Module 3: Automation Systems -->
  <g transform="translate(580, 330)">
    <rect x="0" y="0" width="270" height="170" rx="12" fill="#0D1B2A" fill-opacity="0.8" filter="url(#ai-shadow)" />
    <rect x="1" y="1" width="268" height="168" rx="11" fill="none" stroke="url(#card-border)" stroke-width="1.5" />
    <rect x="-100" y="1" width="100" height="2" fill="url(#scan-grad)" clip-path="url(#card-clip)">
      <animate attributeName="x" values="-100; 270; -100" dur="3.5s" repeatCount="indefinite" />
    </rect>

    <g transform="translate(20, 20)" stroke="#F59E0B" stroke-width="2" stroke-linecap="round" stroke-linejoin="round" fill="none">
      <circle cx="16" cy="16" r="6" />
      <path d="M 16 4 L 16 10 M 16 22 L 16 28 M 4 16 L 10 16 M 22 16 L 28 16" />
      <path d="M 7.5 7.5 L 11.5 11.5 M 20.5 20.5 L 24.5 24.5 M 24.5 7.5 L 20.5 11.5 M 11.5 20.5 L 7.5 24.5" />
    </g>

    <text x="55" y="36" font-family="Inter, system-ui, sans-serif" font-size="15" font-weight="700" fill="#F8FAFC">Automation</text>
    <g transform="translate(200, 26)">
      <rect x="0" y="0" width="55" height="18" rx="9" fill="#F59E0B" fill-opacity="0.1" stroke="#F59E0B" stroke-opacity="0.3" />
      <circle cx="10" cy="9" r="3" fill="#F59E0B" class="pulse" />
      <text x="18" y="13" font-family="Inter, system-ui, sans-serif" font-size="9" font-weight="600" fill="#F59E0B">ONLINE</text>
    </g>
    <line x1="20" y1="55" x2="250" y2="55" stroke="#102A43" stroke-width="1" />
    <text x="20" y="78" font-family="Inter, system-ui, sans-serif" font-size="13" fill="#94A3B8" line-height="1.5">
      <tspan x="20" dy="0">Scalable event-driven</tspan>
      <tspan x="20" dy="20">pipelines eliminating</tspan>
      <tspan x="20" dy="20">repetitive workflows.</tspan>
    </text>
    <g transform="translate(20, 135)">
      <rect x="0" y="0" width="45" height="20" rx="4" fill="#102A43" />
      <text x="22.5" y="14" font-family="Inter, system-ui, sans-serif" font-size="10" fill="#F59E0B" text-anchor="middle">CI/CD</text>
      <rect x="52" y="0" width="55" height="20" rx="4" fill="#102A43" />
      <text x="79.5" y="14" font-family="Inter, system-ui, sans-serif" font-size="10" fill="#F59E0B" text-anchor="middle">Actions</text>
      <rect x="114" y="0" width="65" height="20" rx="4" fill="#102A43" />
      <text x="146.5" y="14" font-family="Inter, system-ui, sans-serif" font-size="10" fill="#F59E0B" text-anchor="middle">Webhooks</text>
    </g>
  </g>

  <!-- Module 4: System Architecture -->
  <g transform="translate(870, 330)">
    <rect x="0" y="0" width="270" height="170" rx="12" fill="#0D1B2A" fill-opacity="0.8" filter="url(#ai-shadow)" />
    <rect x="1" y="1" width="268" height="168" rx="11" fill="none" stroke="url(#card-border)" stroke-width="1.5" />
    <rect x="-100" y="1" width="100" height="2" fill="url(#scan-grad)" clip-path="url(#card-clip)">
      <animate attributeName="x" values="-100; 270; -100" dur="4.2s" repeatCount="indefinite" />
    </rect>

    <g transform="translate(20, 20)" stroke="#06B6D4" stroke-width="2" stroke-linecap="round" stroke-linejoin="round" fill="none">
      <rect x="4" y="4" width="24" height="8" rx="1" />
      <rect x="4" y="18" width="24" height="8" rx="1" />
      <line x1="8" y1="8" x2="10" y2="8" /> <line x1="8" y1="22" x2="10" y2="22" />
      <line x1="14" y1="8" x2="24" y2="8" /> <line x1="14" y1="22" x2="24" y2="22" />
    </g>

    <text x="55" y="36" font-family="Inter, system-ui, sans-serif" font-size="15" font-weight="700" fill="#F8FAFC">System Design</text>
    <g transform="translate(200, 26)">
      <rect x="0" y="0" width="55" height="18" rx="9" fill="#06B6D4" fill-opacity="0.1" stroke="#06B6D4" stroke-opacity="0.3" />
      <circle cx="10" cy="9" r="3" fill="#06B6D4" class="pulse" />
      <text x="18" y="13" font-family="Inter, system-ui, sans-serif" font-size="9" font-weight="600" fill="#06B6D4">ACTIVE</text>
    </g>
    <line x1="20" y1="55" x2="250" y2="55" stroke="#102A43" stroke-width="1" />
    <text x="20" y="78" font-family="Inter, system-ui, sans-serif" font-size="13" fill="#94A3B8" line-height="1.5">
      <tspan x="20" dy="0">High-performance</tspan>
      <tspan x="20" dy="20">architecture and</tspan>
      <tspan x="20" dy="20">embedded hardware.</tspan>
    </text>
    <g transform="translate(20, 135)">
      <rect x="0" y="0" width="55" height="20" rx="4" fill="#102A43" />
      <text x="27.5" y="14" font-family="Inter, system-ui, sans-serif" font-size="10" fill="#06B6D4" text-anchor="middle">Docker</text>
      <rect x="62" y="0" width="45" height="20" rx="4" fill="#102A43" />
      <text x="84.5" y="14" font-family="Inter, system-ui, sans-serif" font-size="10" fill="#06B6D4" text-anchor="middle">Cloud</text>
      <rect x="114" y="0" width="45" height="20" rx="4" fill="#102A43" />
      <text x="136.5" y="14" font-family="Inter, system-ui, sans-serif" font-size="10" fill="#06B6D4" text-anchor="middle">Edge</text>
    </g>
  </g>

  <!-- ======================== -->
  <!-- RIGHT SECTION (AI CORE)  -->
  <!-- ======================== -->

  <!-- Organic Pathways Base Lines -->
  <g stroke="#102A43" stroke-width="2" fill="none">
    <use href="#c-reason"/> <use href="#c-mem"/> <use href="#c-tool"/> <use href="#c-learn"/>
    <use href="#c-plan"/> <use href="#c-decide"/> <use href="#c-ctx"/> <use href="#c-ctx-core"/>
    <use href="#c-resp"/> <use href="#c-resp-core"/> <use href="#c-opt"/> <use href="#c-inf"/> <use href="#c-inf-core"/>
  </g>

  <!-- Animated Glowing Pathways (Organic Energy Rings) -->
  <g stroke="#38BDF8" stroke-width="2" fill="none" stroke-opacity="0.5">
    <use href="#c-reason" stroke-dasharray="4 12" class="flow-1"/>
    <use href="#c-mem" stroke-dasharray="4 12" class="flow-2"/>
    <use href="#c-tool" stroke-dasharray="4 12" class="flow-1"/>
    <use href="#c-learn" stroke-dasharray="4 12" class="flow-2"/>
  </g>

  <!-- Flowing Data Packets -->
  <g filter="url(#ai-glow)">
    <circle r="4" fill="#F8FAFC"><animateMotion dur="2.5s" repeatCount="indefinite"><mpath href="#c-reason"/></animateMotion></circle>
    <circle r="3" fill="#06B6D4"><animateMotion dur="3s" repeatCount="indefinite"><mpath href="#c-mem"/></animateMotion></circle>
    <circle r="3.5" fill="#22C55E"><animateMotion dur="2.8s" repeatCount="indefinite"><mpath href="#c-tool"/></animateMotion></circle>
    <circle r="3" fill="#F59E0B"><animateMotion dur="3.2s" repeatCount="indefinite"><mpath href="#c-learn"/></animateMotion></circle>
    
    <circle r="2.5" fill="#38BDF8"><animateMotion dur="2s" repeatCount="indefinite"><mpath href="#c-plan"/></animateMotion></circle>
    <circle r="2.5" fill="#F59E0B"><animateMotion dur="2.5s" repeatCount="indefinite"><mpath href="#c-decide"/></animateMotion></circle>
    
    <circle r="3" fill="#06B6D4"><animateMotion dur="2s" repeatCount="indefinite"><mpath href="#c-ctx"/></animateMotion></circle>
    <circle r="3" fill="#F8FAFC"><animateMotion dur="3s" repeatCount="indefinite"><mpath href="#c-ctx-core"/></animateMotion></circle>

    <circle r="2.5" fill="#22C55E"><animateMotion dur="2.2s" repeatCount="indefinite"><mpath href="#c-resp"/></animateMotion></circle>
    <circle r="2.5" fill="#38BDF8"><animateMotion dur="3.5s" repeatCount="indefinite"><mpath href="#c-resp-core"/></animateMotion></circle>

    <circle r="3" fill="#F59E0B"><animateMotion dur="2.8s" repeatCount="indefinite"><mpath href="#c-opt"/></animateMotion></circle>
    <circle r="2.5" fill="#06B6D4"><animateMotion dur="2.4s" repeatCount="indefinite"><mpath href="#c-inf"/></animateMotion></circle>
    <circle r="3" fill="#F8FAFC"><animateMotion dur="3.2s" repeatCount="indefinite"><mpath href="#c-inf-core"/></animateMotion></circle>
  </g>

  <!-- Central AI Core -->
  <g id="ai-core">
    <!-- Massive atmospheric glow -->
    <circle cx="1500" cy="350" r="280" fill="url(#core-aura)" />
    <circle cx="1500" cy="350" r="140" fill="url(#core-glow)" />
    
    <!-- Organic energy rings (Transformer layers) -->
    <g transform="translate(1500, 350)">
      <g class="spin-1">
        <ellipse cx="0" cy="0" rx="100" ry="40" fill="none" stroke="#38BDF8" stroke-width="1.5" stroke-dasharray="20 40" />
      </g>
      <g class="spin-rev-1">
        <ellipse cx="0" cy="0" rx="80" ry="100" fill="none" stroke="#06B6D4" stroke-width="1.5" stroke-dasharray="10 30" />
      </g>
    </g>
    
    <circle cx="1500" cy="350" r="45" fill="url(#brain-grad)" filter="url(#ai-glow-lg)">
      <animate attributeName="r" values="40;48;40" dur="5s" repeatCount="indefinite" />
      <animate attributeName="opacity" values="0.8;1;0.8" dur="5s" repeatCount="indefinite" />
    </circle>
    <!-- Core dot -->
    <circle cx="1500" cy="350" r="8" fill="#F8FAFC" filter="url(#ai-glow)">
      <animate attributeName="opacity" values="0.5;1;0.5" dur="2s" repeatCount="indefinite" />
    </circle>
  </g>

  <!-- Reasoning Cluster -->
  <g transform="translate(1320, 220)">
    <circle r="28" fill="none" stroke="#F59E0B" stroke-width="1" opacity="0.3" class="pulse" />
    <circle r="20" fill="#07111F" stroke="#F59E0B" stroke-width="2" />
    <circle r="8" fill="#F59E0B" filter="url(#ai-glow)" />
    <text x="-25" y="5" font-family="Inter, system-ui, sans-serif" font-size="14" fill="#F8FAFC" font-weight="600" text-anchor="end">Reasoning</text>
    <text x="-25" y="20" font-family="Inter, system-ui, sans-serif" font-size="10" fill="#F59E0B" text-anchor="end">Logic Engine</text>
  </g>
  <g transform="translate(1410, 160)">
    <circle r="12" fill="#07111F" stroke="#06B6D4" stroke-width="2" />
    <circle r="5" fill="#06B6D4" class="pulse" />
    <text x="0" y="-18" font-family="Inter, system-ui, sans-serif" font-size="12" fill="#CBD5E1" font-weight="600" text-anchor="middle">Planning</text>
  </g>
  <g transform="translate(1260, 300)">
    <circle r="14" fill="#07111F" stroke="#F59E0B" stroke-width="2" />
    <circle r="5" fill="#F59E0B" class="pulse" />
    <text x="-20" y="5" font-family="Inter, system-ui, sans-serif" font-size="12" fill="#CBD5E1" font-weight="600" text-anchor="end">Decision</text>
  </g>

  <!-- Memory Cluster -->
  <g transform="translate(1650, 200)">
    <circle r="28" fill="none" stroke="#22C55E" stroke-width="1" opacity="0.3" class="pulse" />
    <circle r="20" fill="#07111F" stroke="#22C55E" stroke-width="2" />
    <circle r="8" fill="#22C55E" filter="url(#ai-glow)" />
    <text x="25" y="5" font-family="Inter, system-ui, sans-serif" font-size="14" fill="#F8FAFC" font-weight="600" text-anchor="start">Memory</text>
    <text x="25" y="20" font-family="Inter, system-ui, sans-serif" font-size="10" fill="#22C55E" text-anchor="start">Vector DB</text>
  </g>
  <g transform="translate(1580, 280)">
    <circle r="12" fill="#07111F" stroke="#38BDF8" stroke-width="2" />
    <circle r="5" fill="#38BDF8" class="pulse" />
    <text x="18" y="5" font-family="Inter, system-ui, sans-serif" font-size="12" fill="#CBD5E1" font-weight="600" text-anchor="start">Context</text>
  </g>

  <!-- Tool Calling Cluster -->
  <g transform="translate(1680, 480)">
    <circle r="28" fill="none" stroke="#38BDF8" stroke-width="1" opacity="0.3" class="pulse" />
    <circle r="20" fill="#07111F" stroke="#38BDF8" stroke-width="2" />
    <circle r="8" fill="#38BDF8" filter="url(#ai-glow)" />
    <text x="25" y="5" font-family="Inter, system-ui, sans-serif" font-size="14" fill="#F8FAFC" font-weight="600" text-anchor="start">Tool Calling</text>
    <text x="25" y="20" font-family="Inter, system-ui, sans-serif" font-size="10" fill="#38BDF8" text-anchor="start">Execution</text>
  </g>
  <g transform="translate(1570, 520)">
    <circle r="14" fill="#07111F" stroke="#06B6D4" stroke-width="2" />
    <circle r="6" fill="#06B6D4" class="pulse" />
    <text x="0" y="24" font-family="Inter, system-ui, sans-serif" font-size="12" fill="#CBD5E1" font-weight="600" text-anchor="middle">Response</text>
  </g>

  <!-- Learning Cluster -->
  <g transform="translate(1350, 500)">
    <circle r="28" fill="none" stroke="#06B6D4" stroke-width="1" opacity="0.3" class="pulse" />
    <circle r="20" fill="#07111F" stroke="#06B6D4" stroke-width="2" />
    <circle r="8" fill="#06B6D4" filter="url(#ai-glow)" />
    <text x="-25" y="5" font-family="Inter, system-ui, sans-serif" font-size="14" fill="#F8FAFC" font-weight="600" text-anchor="end">Learning</text>
    <text x="-25" y="20" font-family="Inter, system-ui, sans-serif" font-size="10" fill="#06B6D4" text-anchor="end">Feedback</text>
  </g>
  <g transform="translate(1250, 440)">
    <circle r="12" fill="#07111F" stroke="#F59E0B" stroke-width="2" />
    <circle r="5" fill="#F59E0B" class="pulse" />
    <text x="-18" y="5" font-family="Inter, system-ui, sans-serif" font-size="12" fill="#CBD5E1" font-weight="600" text-anchor="end">Optimization</text>
  </g>
  <g transform="translate(1420, 560)">
    <circle r="14" fill="#07111F" stroke="#22C55E" stroke-width="2" />
    <circle r="5" fill="#22C55E" class="pulse" />
    <text x="0" y="24" font-family="Inter, system-ui, sans-serif" font-size="12" fill="#CBD5E1" font-weight="600" text-anchor="middle">Inference</text>
  </g>

  <!-- Floating Engineering Labels -->
  <g font-family="Inter, system-ui, sans-serif" font-size="10" fill="#94A3B8" opacity="0.6">
    <text x="1680" y="110"># Vector Search</text>
    <text x="1710" y="300"># Embeddings</text>
    <text x="1600" y="380"># Python</text>
    <text x="1730" y="560"># APIs</text>
    <text x="1450" y="90"># Next.js</text>
    <text x="1260" y="120"># TypeScript</text>
    <text x="1140" y="260"># Architecture</text>
    <text x="1160" y="540"># Automation</text>
    <text x="1350" y="610"># Supabase</text>
    <text x="1530" y="630"># Open Source</text>
  </g>

</svg>