<svg xmlns="http://www.w3.org/2000/svg" viewBox="0 0 1600 900" width="1600" height="900">
  <title>System Architecture &amp; Integration Bridge</title>
  <desc>A comprehensive engineering diagram illustrating how Naboraj Sarkar connects complete systems, from distributed cloud backends and cognitive AI workflows to embedded hardware and observability loops.</desc>
  
  <defs>
    <!-- Background Glows -->
    <radialGradient id="sb-bgGlow1" cx="20%" cy="20%" r="60%">
      <stop offset="0%" stop-color="#102A43" stop-opacity="0.4" />
      <stop offset="100%" stop-color="#07111F" stop-opacity="0" />
    </radialGradient>
    <radialGradient id="sb-bgGlow2" cx="80%" cy="80%" r="60%">
      <stop offset="0%" stop-color="#06B6D4" stop-opacity="0.15" />
      <stop offset="100%" stop-color="#07111F" stop-opacity="0" />
    </radialGradient>
    <radialGradient id="sb-bgGlow3" cx="50%" cy="50%" r="60%">
      <stop offset="0%" stop-color="#22C55E" stop-opacity="0.1" />
      <stop offset="100%" stop-color="#07111F" stop-opacity="0" />
    </radialGradient>

    <!-- Grid Pattern -->
    <pattern id="sb-grid" width="40" height="40" patternUnits="userSpaceOnUse">
      <path d="M 40 0 L 0 0 0 40" fill="none" stroke="#102A43" stroke-width="1" stroke-opacity="0.4" />
    </pattern>

    <!-- Card Gradients -->
    <linearGradient id="sb-cardGrad" x1="0" y1="0" x2="1" y2="1">
      <stop offset="0%" stop-color="#102A43" stop-opacity="0.85" />
      <stop offset="100%" stop-color="#0D1B2A" stop-opacity="0.95" />
    </linearGradient>
    <linearGradient id="sb-cardBorder" x1="0" y1="0" x2="1" y2="1">
      <stop offset="0%" stop-color="#38BDF8" stop-opacity="0.5" />
      <stop offset="100%" stop-color="#102A43" stop-opacity="0.3" />
    </linearGradient>

    <!-- Pipe Gradient -->
    <linearGradient id="sb-pipeColor" x1="0" y1="0" x2="1" y2="1">
      <stop offset="0%" stop-color="#38BDF8" />
      <stop offset="33%" stop-color="#22C55E" />
      <stop offset="66%" stop-color="#F59E0B" />
      <stop offset="100%" stop-color="#06B6D4" />
    </linearGradient>

    <!-- Filters -->
    <filter id="sb-shadow" x="-20%" y="-20%" width="140%" height="140%">
      <feDropShadow dx="0" dy="8" stdDeviation="12" flood-color="#000000" flood-opacity="0.5"/>
    </filter>
    <filter id="sb-pipeGlow" x="-50%" y="-50%" width="200%" height="200%">
      <feGaussianBlur stdDeviation="6" result="blur" />
      <feMerge>
        <feMergeNode in="blur" />
        <feMergeNode in="SourceGraphic" />
      </feMerge>
    </filter>
    
    <!-- Track Path -->
    <path id="sb-mainTrack" d="M 260 200 L 1340 200 A 60 60 0 0 1 1400 260 L 1400 640 A 60 60 0 0 1 1340 700 L 260 700 A 60 60 0 0 1 200 640 L 200 260 A 60 60 0 0 1 260 200 Z" />
  </defs>

  <style>
    @keyframes sb-flow {
      from { stroke-dashoffset: 0; }
      to { stroke-dashoffset: -120; }
    }
    @keyframes sb-flowReverse {
      from { stroke-dashoffset: 0; }
      to { stroke-dashoffset: 120; }
    }
    @keyframes sb-float1 {
      0%, 100% { transform: translateY(0); }
      50% { transform: translateY(-8px); }
    }
    @keyframes sb-float2 {
      0%, 100% { transform: translateY(0); }
      50% { transform: translateY(-5px); }
    }
    @keyframes sb-float3 {
      0%, 100% { transform: translateY(0); }
      50% { transform: translateY(-12px); }
    }
    .sb-animated-path {
      animation: sb-flow 4s linear infinite;
    }
    .sb-animated-path-reverse {
      animation: sb-flowReverse 6s linear infinite;
    }
    .sb-float-1 { animation: sb-float1 6s ease-in-out infinite; }
    .sb-float-2 { animation: sb-float2 8s ease-in-out infinite; }
    .sb-float-3 { animation: sb-float3 10s ease-in-out infinite; }
    .sb-glass-card {
      fill: url(#sb-cardGrad);
      stroke: url(#sb-cardBorder);
      stroke-width: 1.5;
      filter: url(#sb-shadow);
    }
    .sb-icon-glow {
      filter: drop-shadow(0 0 8px currentColor);
    }
  </style>

  <!-- Background -->
  <rect width="1600" height="900" fill="#07111F" />
  <rect width="100%" height="100%" fill="url(#sb-grid)" />
  <rect width="100%" height="100%" fill="url(#sb-bgGlow1)" />
  <rect width="100%" height="100%" fill="url(#sb-bgGlow2)" />
  <rect width="100%" height="100%" fill="url(#sb-bgGlow3)" />

  <!-- Floating Engineering Keywords -->
  <g font-family="system-ui, -apple-system, sans-serif" font-size="14" fill="#CBD5E1" opacity="0.35" font-weight="600" letter-spacing="1">
    <text x="120" y="80" class="sb-float-1" style="animation-delay: 0.1s;">Open Source Maintainer</text>
    <text x="450" y="100" class="sb-float-2" style="animation-delay: 0.5s;">Algorithmic Reasoning</text>
    <text x="800" y="70" class="sb-float-3" style="animation-delay: 0.9s;">Clean Architecture</text>
    <text x="1150" y="90" class="sb-float-1" style="animation-delay: 1.3s;">System Integration</text>
    <text x="1420" y="100" class="sb-float-2" style="animation-delay: 1.7s;">Cloud</text>
    
    <text x="120" y="820" class="sb-float-3" style="animation-delay: 0.2s;">Full-Stack</text>
    <text x="450" y="840" class="sb-float-1" style="animation-delay: 0.6s;">Scalable Infrastructure</text>
    <text x="800" y="820" class="sb-float-2" style="animation-delay: 1.0s;">Low-Latency Performance</text>
    <text x="1150" y="850" class="sb-float-3" style="animation-delay: 1.4s;">Cybersecurity</text>
    <text x="1380" y="820" class="sb-float-1" style="animation-delay: 1.8s;">Multi-Agent Systems</text>
    
    <text x="750" y="450" class="sb-float-2" style="animation-delay: 0.3s;">Event-Driven Automation</text>
    <text x="1050" y="450" class="sb-float-3" style="animation-delay: 0.7s;">Distributed Systems</text>
    <text x="400" y="450" class="sb-float-1" style="animation-delay: 1.1s;">Hardware / Software Bridge</text>
    
    <text x="1420" y="320" class="sb-float-1" style="animation-delay: 0.4s;">Observability</text>
    <text x="1420" y="580" class="sb-float-2" style="animation-delay: 0.8s;">Edge Telemetry</text>
    
    <text x="40" y="320" class="sb-float-3" style="animation-delay: 1.2s;">Embedded Engineering</text>
    <text x="60" y="580" class="sb-float-1" style="animation-delay: 1.6s;">Data Feedback Loops</text>
  </g>

  <!-- Central Workflow Tracks -->
  <use href="#sb-mainTrack" fill="none" stroke="#102A43" stroke-width="12" />
  <use href="#sb-mainTrack" fill="none" stroke="url(#sb-pipeColor)" stroke-width="4" stroke-dasharray="20 40" class="sb-animated-path" opacity="0.85" filter="url(#sb-pipeGlow)" />
  <use href="#sb-mainTrack" fill="none" stroke="#F8FAFC" stroke-width="1.5" stroke-dasharray="5 25" class="sb-animated-path-reverse" opacity="0.4" />

  <!-- Data Packets -->
  <circle r="6" fill="#F8FAFC" filter="url(#sb-pipeGlow)">
    <animateMotion dur="20s" begin="0s" repeatCount="indefinite"><mpath href="#sb-mainTrack" /></animateMotion>
  </circle>
  <circle r="6" fill="#38BDF8" filter="url(#sb-pipeGlow)">
    <animateMotion dur="20s" begin="-5s" repeatCount="indefinite"><mpath href="#sb-mainTrack" /></animateMotion>
  </circle>
  <circle r="6" fill="#22C55E" filter="url(#sb-pipeGlow)">
    <animateMotion dur="20s" begin="-10s" repeatCount="indefinite"><mpath href="#sb-mainTrack" /></animateMotion>
  </circle>
  <circle r="6" fill="#F59E0B" filter="url(#sb-pipeGlow)">
    <animateMotion dur="20s" begin="-15s" repeatCount="indefinite"><mpath href="#sb-mainTrack" /></animateMotion>
  </circle>

  <!-- CARDS -->

  <!-- Card 1: System Architecture -->
  <g transform="translate(90, 140)">
    <rect x="0" y="0" width="220" height="120" rx="16" class="sb-glass-card" />
    <g transform="translate(20, 22)" fill="none" stroke="#F59E0B" stroke-width="2" stroke-linecap="round" stroke-linejoin="round" class="sb-icon-glow">
      <path d="M9 21h6 M12 24v-1 M12 2a7 7 0 0 0-7 7c0 2.38 1.19 4.47 3 5.74V17a1 1 0 0 0 1 1h6a1 1 0 0 0 1-1v-2.26c1.81-1.27 3-3.36 3-5.74a7 7 0 0 0-7-7z" />
    </g>
    <text x="60" y="38" font-family="system-ui, -apple-system, sans-serif" font-weight="700" font-size="16" fill="#F8FAFC">System Architecture</text>
    <text x="60" y="65" font-family="system-ui, -apple-system, sans-serif" font-size="13" fill="#CBD5E1">Research &amp; Planning</text>
    <text x="60" y="85" font-family="system-ui, -apple-system, sans-serif" font-size="13" fill="#CBD5E1">Mathematical Modeling</text>
    <text x="60" y="105" font-family="system-ui, -apple-system, sans-serif" font-size="13" fill="#CBD5E1">Blueprint Design</text>
  </g>

  <!-- Card 2: Client Applications -->
  <g transform="translate(390, 140)">
    <rect x="0" y="0" width="220" height="120" rx="16" class="sb-glass-card" />
    <g transform="translate(20, 22)" fill="none" stroke="#38BDF8" stroke-width="2" stroke-linecap="round" stroke-linejoin="round" class="sb-icon-glow">
      <path d="M3 6a2 2 0 0 1 2-2h14a2 2 0 0 1 2 2v12a2 2 0 0 1-2 2H5a2 2 0 0 1-2-2V6z M3 10h18" />
    </g>
    <text x="60" y="38" font-family="system-ui, -apple-system, sans-serif" font-weight="700" font-size="16" fill="#F8FAFC">Client Applications</text>
    <text x="60" y="65" font-family="system-ui, -apple-system, sans-serif" font-size="13" fill="#CBD5E1">Browser Interfaces</text>
    <text x="60" y="85" font-family="system-ui, -apple-system, sans-serif" font-size="13" fill="#CBD5E1">React &amp; Next.js</text>
    <text x="60" y="105" font-family="system-ui, -apple-system, sans-serif" font-size="13" fill="#CBD5E1">Interactive UI</text>
  </g>

  <!-- Card 3: Distributed Backend -->
  <g transform="translate(690, 140)">
    <rect x="0" y="0" width="220" height="120" rx="16" class="sb-glass-card" />
    <g transform="translate(20, 22)" fill="none" stroke="#06B6D4" stroke-width="2" stroke-linecap="round" stroke-linejoin="round" class="sb-icon-glow">
      <path d="M4 17l6-6-6-6 M12 19h8" />
    </g>
    <text x="60" y="38" font-family="system-ui, -apple-system, sans-serif" font-weight="700" font-size="16" fill="#F8FAFC">Distributed Backend</text>
    <text x="60" y="65" font-family="system-ui, -apple-system, sans-serif" font-size="13" fill="#CBD5E1">Scalable APIs</text>
    <text x="60" y="85" font-family="system-ui, -apple-system, sans-serif" font-size="13" fill="#CBD5E1">Node.js / Python</text>
    <text x="60" y="105" font-family="system-ui, -apple-system, sans-serif" font-size="13" fill="#CBD5E1">Microservices</text>
  </g>

  <!-- Card 4: Database & Auth -->
  <g transform="translate(990, 140)">
    <rect x="0" y="0" width="220" height="120" rx="16" class="sb-glass-card" />
    <g transform="translate(20, 22)" fill="none" stroke="#22C55E" stroke-width="2" stroke-linecap="round" stroke-linejoin="round" class="sb-icon-glow">
      <ellipse cx="12" cy="5" rx="9" ry="3" />
      <path d="M21 12c0 1.66-4 3-9 3s-9-1.34-9-3" />
      <path d="M3 5v14c0 1.66 4 3 9 3s9-1.34 9-3V5" />
    </g>
    <text x="60" y="38" font-family="system-ui, -apple-system, sans-serif" font-weight="700" font-size="16" fill="#F8FAFC">Database &amp; Auth</text>
    <text x="60" y="65" font-family="system-ui, -apple-system, sans-serif" font-size="13" fill="#CBD5E1">PostgreSQL Architecture</text>
    <text x="60" y="85" font-family="system-ui, -apple-system, sans-serif" font-size="13" fill="#CBD5E1">Secure Authentication</text>
    <text x="60" y="105" font-family="system-ui, -apple-system, sans-serif" font-size="13" fill="#CBD5E1">Realtime Sync (Supabase)</text>
  </g>

  <!-- Card 5: Cognitive Workflows -->
  <g transform="translate(1290, 140)">
    <rect x="0" y="0" width="220" height="120" rx="16" class="sb-glass-card" />
    <g transform="translate(20, 22)" fill="none" stroke="#F59E0B" stroke-width="2" stroke-linecap="round" stroke-linejoin="round" class="sb-icon-glow">
      <path d="M12 2l2.4 7.6L22 12l-7.6 2.4L12 22l-2.4-7.6L2 12l7.6-2.4L12 2z M19 1l1 3 3 1-3 1-1 3-1-3-3-1 3-1z" />
    </g>
    <text x="60" y="38" font-family="system-ui, -apple-system, sans-serif" font-weight="700" font-size="16" fill="#F8FAFC">Cognitive Workflows</text>
    <text x="60" y="65" font-family="system-ui, -apple-system, sans-serif" font-size="13" fill="#CBD5E1">LLM Integration</text>
    <text x="60" y="85" font-family="system-ui, -apple-system, sans-serif" font-size="13" fill="#CBD5E1">Autonomous Reasoning</text>
    <text x="60" y="105" font-family="system-ui, -apple-system, sans-serif" font-size="13" fill="#CBD5E1">Multi-Agent Pipelines</text>
  </g>

  <!-- Card 6: CI/CD Pipelines -->
  <g transform="translate(1290, 390)">
    <rect x="0" y="0" width="220" height="120" rx="16" class="sb-glass-card" />
    <g transform="translate(20, 22)" fill="none" stroke="#38BDF8" stroke-width="2" stroke-linecap="round" stroke-linejoin="round" class="sb-icon-glow">
      <circle cx="12" cy="12" r="3" />
      <path d="M19.4 15a1.65 1.65 0 0 0 .33 1.82l.06.06a2 2 0 0 1 0 2.83 2 2 0 0 1-2.83 0l-.06-.06a1.65 1.65 0 0 0-1.82-.33 1.65 1.65 0 0 0-1 1.51V21a2 2 0 0 1-2 2 2 2 0 0 1-2-2v-.09A1.65 1.65 0 0 0 9 19.4a1.65 1.65 0 0 0-1.82.33l-.06.06a2 2 0 0 1-2.83 0 2 2 0 0 1 0-2.83l.06-.06a1.65 1.65 0 0 0 .33-1.82 1.65 1.65 0 0 0-1.51-1H3a2 2 0 0 1-2-2 2 2 0 0 1 2-2h.09A1.65 1.65 0 0 0 4.6 9a1.65 1.65 0 0 0-.33-1.82l-.06-.06a2 2 0 0 1 0-2.83 2 2 0 0 1 2.83 0l.06.06a1.65 1.65 0 0 0 1.82.33H9a1.65 1.65 0 0 0 1-1.51V3a2 2 0 0 1 2-2 2 2 0 0 1 2 2v.09a1.65 1.65 0 0 0 1 1.51 1.65 1.65 0 0 0 1.82-.33l.06-.06a2 2 0 0 1 2.83 0 2 2 0 0 1 0 2.83l-.06.06a1.65 1.65 0 0 0-.33 1.82V9a1.65 1.65 0 0 0 1.51 1H21a2 2 0 0 1 2 2 2 2 0 0 1-2 2h-.09a1.65 1.65 0 0 0-1.51 1z" />
    </g>
    <text x="60" y="38" font-family="system-ui, -apple-system, sans-serif" font-weight="700" font-size="16" fill="#F8FAFC">CI/CD Pipelines</text>
    <text x="60" y="65" font-family="system-ui, -apple-system, sans-serif" font-size="13" fill="#CBD5E1">GitHub Actions</text>
    <text x="60" y="85" font-family="system-ui, -apple-system, sans-serif" font-size="13" fill="#CBD5E1">Webhook Triggers</text>
    <text x="60" y="105" font-family="system-ui, -apple-system, sans-serif" font-size="13" fill="#CBD5E1">Zero-Manual Deployments</text>
  </g>

  <!-- Card 7: Orchestration Layer -->
  <g transform="translate(1290, 640)">
    <rect x="0" y="0" width="220" height="120" rx="16" class="sb-glass-card" />
    <g transform="translate(20, 22)" fill="none" stroke="#06B6D4" stroke-width="2" stroke-linecap="round" stroke-linejoin="round" class="sb-icon-glow">
      <path d="M10 2v7.31L2 20.5A2 2 0 0 0 3.73 24h16.54A2 2 0 0 0 22 20.5L14 9.31V2" />
      <line x1="8.5" y1="2" x2="15.5" y2="2" />
      <line x1="5" y1="16" x2="19" y2="16" />
    </g>
    <text x="60" y="38" font-family="system-ui, -apple-system, sans-serif" font-weight="700" font-size="16" fill="#F8FAFC">Orchestration Layer</text>
    <text x="60" y="65" font-family="system-ui, -apple-system, sans-serif" font-size="13" fill="#CBD5E1">Event Handling</text>
    <text x="60" y="85" font-family="system-ui, -apple-system, sans-serif" font-size="13" fill="#CBD5E1">Service Routing</text>
    <text x="60" y="105" font-family="system-ui, -apple-system, sans-serif" font-size="13" fill="#CBD5E1">Data Synchronization</text>
  </g>

  <!-- Card 8: Embedded Hardware -->
  <g transform="translate(990, 640)">
    <rect x="0" y="0" width="220" height="120" rx="16" class="sb-glass-card" />
    <g transform="translate(20, 22)" fill="none" stroke="#22C55E" stroke-width="2" stroke-linecap="round" stroke-linejoin="round" class="sb-icon-glow">
      <path d="M5 12.55a11 11 0 0 1 14.08 0" />
      <path d="M1.42 9a16 16 0 0 1 21.16 0" />
      <path d="M8.53 16.11a6 6 0 0 1 6.95 0" />
      <line x1="12" y1="20" x2="12.01" y2="20" />
    </g>
    <text x="60" y="38" font-family="system-ui, -apple-system, sans-serif" font-weight="700" font-size="16" fill="#F8FAFC">Embedded Hardware</text>
    <text x="60" y="65" font-family="system-ui, -apple-system, sans-serif" font-size="13" fill="#CBD5E1">IoT Sensors</text>
    <text x="60" y="85" font-family="system-ui, -apple-system, sans-serif" font-size="13" fill="#CBD5E1">Microcontrollers</text>
    <text x="60" y="105" font-family="system-ui, -apple-system, sans-serif" font-size="13" fill="#CBD5E1">Firmware Engineering</text>
  </g>

  <!-- Card 9: Edge Telemetry -->
  <g transform="translate(690, 640)">
    <rect x="0" y="0" width="220" height="120" rx="16" class="sb-glass-card" />
    <g transform="translate(20, 22)" fill="none" stroke="#F59E0B" stroke-width="2" stroke-linecap="round" stroke-linejoin="round" class="sb-icon-glow">
      <rect x="4" y="4" width="16" height="16" rx="2" ry="2" />
      <rect x="9" y="9" width="6" height="6" />
      <line x1="9" y1="1" x2="9" y2="4" />
      <line x1="15" y1="1" x2="15" y2="4" />
      <line x1="9" y1="20" x2="9" y2="23" />
      <line x1="15" y1="20" x2="15" y2="23" />
      <line x1="20" y1="9" x2="23" y2="9" />
      <line x1="20" y1="14" x2="23" y2="14" />
      <line x1="1" y1="9" x2="4" y2="9" />
      <line x1="1" y1="14" x2="4" y2="14" />
    </g>
    <text x="60" y="38" font-family="system-ui, -apple-system, sans-serif" font-weight="700" font-size="16" fill="#F8FAFC">Edge Telemetry</text>
    <text x="60" y="65" font-family="system-ui, -apple-system, sans-serif" font-size="13" fill="#CBD5E1">Signal Processing</text>
    <text x="60" y="85" font-family="system-ui, -apple-system, sans-serif" font-size="13" fill="#CBD5E1">Low-Latency Data</text>
    <text x="60" y="105" font-family="system-ui, -apple-system, sans-serif" font-size="13" fill="#CBD5E1">Edge Computing</text>
  </g>

  <!-- Card 10: Physical Environments -->
  <g transform="translate(390, 640)">
    <rect x="0" y="0" width="220" height="120" rx="16" class="sb-glass-card" />
    <g transform="translate(20, 22)" fill="none" stroke="#38BDF8" stroke-width="2" stroke-linecap="round" stroke-linejoin="round" class="sb-icon-glow">
      <line x1="22" y1="12" x2="2" y2="12" />
      <path d="M5.45 5.11L2 12v6a2 2 0 0 0 2 2h16a2 2 0 0 0 2-2v-6l-3.45-6.89A2 2 0 0 0 16.76 4H7.24a2 2 0 0 0-1.79 1.11z" />
      <line x1="6" y1="16" x2="6.01" y2="16" />
      <line x1="10" y1="16" x2="10.01" y2="16" />
    </g>
    <text x="60" y="38" font-family="system-ui, -apple-system, sans-serif" font-weight="700" font-size="16" fill="#F8FAFC">Physical Environments</text>
    <text x="60" y="65" font-family="system-ui, -apple-system, sans-serif" font-size="13" fill="#CBD5E1">Hardware Integrations</text>
    <text x="60" y="85" font-family="system-ui, -apple-system, sans-serif" font-size="13" fill="#CBD5E1">Device Control</text>
    <text x="60" y="105" font-family="system-ui, -apple-system, sans-serif" font-size="13" fill="#CBD5E1">Real-World Actuation</text>
  </g>

  <!-- Card 11: Observability & Logging -->
  <g transform="translate(90, 640)">
    <rect x="0" y="0" width="220" height="120" rx="16" class="sb-glass-card" />
    <g transform="translate(20, 22)" fill="none" stroke="#06B6D4" stroke-width="2" stroke-linecap="round" stroke-linejoin="round" class="sb-icon-glow">
      <polyline points="23 4 23 10 17 10" />
      <polyline points="1 20 1 14 7 14" />
      <path d="M3.51 9a9 9 0 0 1 14.85-3.36L23 10M1 14l4.64 4.36A9 9 0 0 0 20.49 15" />
    </g>
    <text x="60" y="38" font-family="system-ui, -apple-system, sans-serif" font-weight="700" font-size="16" fill="#F8FAFC">Observability</text>
    <text x="60" y="65" font-family="system-ui, -apple-system, sans-serif" font-size="13" fill="#CBD5E1">System Telemetry</text>
    <text x="60" y="85" font-family="system-ui, -apple-system, sans-serif" font-size="13" fill="#CBD5E1">Audit Logs</text>
    <text x="60" y="105" font-family="system-ui, -apple-system, sans-serif" font-size="13" fill="#CBD5E1">Failure State Metrics</text>
  </g>

  <!-- Card 12: Algorithmic Optimization -->
  <g transform="translate(90, 390)">
    <rect x="0" y="0" width="220" height="120" rx="16" class="sb-glass-card" />
    <g transform="translate(20, 22)" fill="none" stroke="#22C55E" stroke-width="2" stroke-linecap="round" stroke-linejoin="round" class="sb-icon-glow">
      <path d="M2 3h6a4 4 0 0 1 4 4v14a3 3 0 0 0-3-3H2z" />
      <path d="M22 3h-6a4 4 0 0 0-4 4v14a3 3 0 0 1 3-3h7z" />
    </g>
    <text x="60" y="38" font-family="system-ui, -apple-system, sans-serif" font-weight="700" font-size="16" fill="#F8FAFC">Algorithmic Optimization</text>
    <text x="60" y="65" font-family="system-ui, -apple-system, sans-serif" font-size="13" fill="#CBD5E1">Data Feedback Loops</text>
    <text x="60" y="85" font-family="system-ui, -apple-system, sans-serif" font-size="13" fill="#CBD5E1">Performance Refactoring</text>
    <text x="60" y="105" font-family="system-ui, -apple-system, sans-serif" font-size="13" fill="#CBD5E1">Continuous Evolution</text>
  </g>
</svg>